<mxfile host="app.diagrams.net" modified="2024-02-04T15:19:57.013Z" agent="Mozilla/5.0 (Macintosh; Intel Mac OS X 10_15_7) AppleWebKit/537.36 (KHTML, like Gecko) Chrome/120.0.0.0 Safari/537.36" etag="S845qdcRS1CNe1fquq_F" version="23.1.1" type="gitlab">
  <diagram name="Page-1" id="03018318-947c-dd8e-b7a3-06fadd420f32">
    <mxGraphModel dx="1242" dy="819" grid="1" gridSize="10" guides="1" tooltips="1" connect="1" arrows="1" fold="1" page="1" pageScale="1" pageWidth="1100" pageHeight="850" background="none" math="0" shadow="0">
      <root>
        <mxCell id="0" />
        <mxCell id="1" parent="0" />
        <mxCell id="677b7b8949515195-1" value="" style="whiteSpace=wrap;html=1;rounded=0;shadow=0;labelBackgroundColor=none;strokeColor=#000000;strokeWidth=1;fillColor=none;fontFamily=Verdana;fontSize=12;fontColor=#000000;align=center;comic=1;" parent="1" vertex="1">
          <mxGeometry x="20" y="20" width="1060" height="810" as="geometry" />
        </mxCell>
        <mxCell id="677b7b8949515195-2" value="VegeFacts" style="whiteSpace=wrap;html=1;rounded=0;shadow=0;labelBackgroundColor=none;strokeWidth=1;fontFamily=Verdana;fontSize=28;align=center;comic=1;" parent="1" vertex="1">
          <mxGeometry x="120" y="60" width="190" height="50" as="geometry" />
        </mxCell>
        <mxCell id="677b7b8949515195-4" value="Home" style="text;html=1;points=[];align=left;verticalAlign=top;spacingTop=-4;fontSize=14;fontFamily=Verdana" parent="1" vertex="1">
          <mxGeometry x="550" y="75" width="60" height="20" as="geometry" />
        </mxCell>
        <mxCell id="677b7b8949515195-5" value="Predict" style="text;html=1;points=[];align=left;verticalAlign=top;spacingTop=-4;fontSize=14;fontFamily=Verdana" parent="1" vertex="1">
          <mxGeometry x="620" y="75" width="60" height="20" as="geometry" />
        </mxCell>
        <mxCell id="677b7b8949515195-6" value="Veges!" style="text;html=1;points=[];align=left;verticalAlign=top;spacingTop=-4;fontSize=14;fontFamily=Verdana" parent="1" vertex="1">
          <mxGeometry x="700" y="75" width="60" height="20" as="geometry" />
        </mxCell>
        <mxCell id="677b7b8949515195-7" value="History" style="text;html=1;points=[];align=left;verticalAlign=top;spacingTop=-4;fontSize=14;fontFamily=Verdana" parent="1" vertex="1">
          <mxGeometry x="770" y="75" width="60" height="20" as="geometry" />
        </mxCell>
        <mxCell id="677b7b8949515195-9" value="" style="line;strokeWidth=1;html=1;rounded=0;shadow=0;labelBackgroundColor=none;fillColor=none;fontFamily=Verdana;fontSize=14;fontColor=#000000;align=center;comic=1;" parent="1" vertex="1">
          <mxGeometry x="20" y="140" width="1060" height="10" as="geometry" />
        </mxCell>
        <mxCell id="677b7b8949515195-10" value="&lt;font style=&quot;font-size: 36px;&quot;&gt;Hi there! &lt;br&gt;I&#39;m Tommy the Tomato&lt;/font&gt;" style="whiteSpace=wrap;html=1;rounded=0;shadow=0;labelBackgroundColor=none;strokeWidth=1;fillColor=none;fontFamily=Verdana;fontSize=12;align=center;comic=1;" parent="1" vertex="1">
          <mxGeometry x="70" y="190" width="470" height="90" as="geometry" />
        </mxCell>
        <mxCell id="677b7b8949515195-25" value="" style="whiteSpace=wrap;html=1;rounded=0;shadow=0;labelBackgroundColor=none;strokeWidth=1;fillColor=none;fontFamily=Verdana;fontSize=12;align=center;comic=1;" parent="1" vertex="1">
          <mxGeometry x="640" y="280" width="340" height="150" as="geometry" />
        </mxCell>
        <mxCell id="677b7b8949515195-26" value="" style="whiteSpace=wrap;html=1;rounded=0;shadow=0;labelBackgroundColor=none;strokeWidth=1;fillColor=none;fontFamily=Verdana;fontSize=12;align=center;comic=1;" parent="1" vertex="1">
          <mxGeometry x="640" y="490" width="340" height="180" as="geometry" />
        </mxCell>
        <mxCell id="677b7b8949515195-44" value="&lt;font style=&quot;font-size: 24px;&quot;&gt;Play a Guessing&lt;br&gt;Game!&lt;/font&gt;" style="text;html=1;points=[];align=center;verticalAlign=top;spacingTop=-4;fontSize=14;fontFamily=Verdana" parent="1" vertex="1">
          <mxGeometry x="670" y="320" width="290" height="95" as="geometry" />
        </mxCell>
        <mxCell id="6boVaMZdAAq8KZMVTzDt-1" value="Profile" style="text;html=1;points=[];align=left;verticalAlign=top;spacingTop=-4;fontSize=14;fontFamily=Verdana" vertex="1" parent="1">
          <mxGeometry x="850" y="75" width="60" height="20" as="geometry" />
        </mxCell>
        <mxCell id="6boVaMZdAAq8KZMVTzDt-2" value="Login/Signup" style="text;html=1;points=[];align=left;verticalAlign=top;spacingTop=-4;fontSize=14;fontFamily=Verdana" vertex="1" parent="1">
          <mxGeometry x="920" y="75" width="60" height="20" as="geometry" />
        </mxCell>
        <mxCell id="6boVaMZdAAq8KZMVTzDt-3" value="" style="shape=image;verticalLabelPosition=bottom;labelBackgroundColor=default;verticalAlign=top;aspect=fixed;imageAspect=0;image=https://st4.depositphotos.com/24038622/27074/v/450/depositphotos_270749816-stock-illustration-tomato-mascot-cartoon-illustration-tomato.jpg;" vertex="1" parent="1">
          <mxGeometry x="110" y="320" width="350" height="350" as="geometry" />
        </mxCell>
        <mxCell id="6boVaMZdAAq8KZMVTzDt-4" value="&lt;span style=&quot;font-size: 24px;&quot;&gt;Join my GANG!&lt;/span&gt;" style="text;html=1;points=[];align=center;verticalAlign=top;spacingTop=-4;fontSize=14;fontFamily=Verdana" vertex="1" parent="1">
          <mxGeometry x="690" y="560" width="220" height="75" as="geometry" />
        </mxCell>
      </root>
    </mxGraphModel>
  </diagram>
</mxfile>
